<?xml version="1.0" encoding="UTF-8" standalone="no"?>
<svg width="48px" height="48px" viewBox="0 0 48 48" version="1.1" xmlns="http://www.w3.org/2000/svg" xmlns:xlink="http://www.w3.org/1999/xlink" xmlns:sketch="http://www.bohemiancoding.com/sketch/ns">
    <!-- Generator: Sketch 3.3.2 (12043) - http://www.bohemiancoding.com/sketch -->
    <title>css</title>
    <desc>Created with Sketch.</desc>
    <defs></defs>
    <g id="Page-1" stroke="none" stroke-width="1" fill="none" fill-rule="evenodd" sketch:type="MSPage">
        <g id="css" sketch:type="MSArtboardGroup">
            <circle id="Oval-1" opacity="0.95" fill="#FFFFFF" sketch:type="MSShapeGroup" cx="24" cy="24" r="24"></circle>
            <path d="M10.5,10 L12.9572769,37.001165 L23.9834796,40 L35.0404539,36.9968074 L37.5,10 L10.5,10 L10.5,10 Z M32.394826,16.1758873 L31.5768835,25.1614538 L31.5659002,25.2816883 L31.5640847,25.3016088 L30.9888654,31.5977305 L30.9380333,32.1571051 L24.0203328,34.0355012 L24.0203328,34.0360348 L24.0047201,34.0403034 L17.0808472,32.1571051 L16.6073828,26.9575889 L18.1711952,26.9575889 L20.0003328,26.9575889 L20.241059,29.5986554 L24.0055371,30.5945912 L24.0086233,30.5937019 L24.0086233,30.5933462 L27.7785477,29.5964321 L28.1726778,25.3016088 L24.0000908,25.3016088 L24.0000908,25.3021423 L20.2940696,25.3021423 L20.2832678,25.3021423 L20.2155522,24.5578806 L20.0614221,22.8790452 L19.9806354,21.9905378 L24.0000908,21.9905378 L24.0000908,21.990182 L28.4728593,21.990182 L28.7817549,18.5990733 L24.0118003,18.5990733 L24.0000908,18.5990733 L15.8579728,18.5990733 L15.847171,18.5990733 L15.7793646,17.8547227 L15.6253253,16.1758873 L15.5445386,15.2873798 L24.0000908,15.2873798 L24.0118003,15.2873798 L32.475885,15.2873798 L32.394826,16.1758873 L32.394826,16.1758873 Z" id="Shape" fill="#9C85F0" sketch:type="MSShapeGroup"></path>
        </g>
    </g>
</svg>